<mxfile host="Electron" agent="Mozilla/5.0 (Windows NT 10.0; Win64; x64) AppleWebKit/537.36 (KHTML, like Gecko) draw.io/26.0.16 Chrome/132.0.6834.196 Electron/34.2.0 Safari/537.36" version="26.0.16">
  <diagram name="Page-1" id="gtguHKPgEK-_1riBx4Ve">
    <mxGraphModel dx="1900" dy="655" grid="1" gridSize="10" guides="1" tooltips="1" connect="1" arrows="1" fold="1" page="1" pageScale="1" pageWidth="850" pageHeight="1100" math="0" shadow="0">
      <root>
        <mxCell id="0" />
        <mxCell id="1" parent="0" />
        <mxCell id="-8R4dWwHRHD-DHXN2tkf-1" value="&lt;b&gt;&lt;font style=&quot;font-size: 19px;&quot;&gt;Data Flow Diagram&lt;/font&gt;&lt;/b&gt;" style="text;html=1;align=center;verticalAlign=middle;resizable=0;points=[];autosize=1;strokeColor=none;fillColor=none;" parent="1" vertex="1">
          <mxGeometry x="-290" y="20" width="190" height="40" as="geometry" />
        </mxCell>
        <mxCell id="-8R4dWwHRHD-DHXN2tkf-2" value="" style="rounded=0;whiteSpace=wrap;html=1;strokeColor=#A1A1A1;dashed=1;" parent="1" vertex="1">
          <mxGeometry x="-230" y="120" width="150" height="450" as="geometry" />
        </mxCell>
        <mxCell id="-8R4dWwHRHD-DHXN2tkf-3" value="&lt;b&gt;Sources&lt;/b&gt;" style="text;html=1;align=center;verticalAlign=middle;resizable=0;points=[];autosize=1;fillColor=default;" parent="1" vertex="1">
          <mxGeometry x="-192.5" y="107.33" width="70" height="30" as="geometry" />
        </mxCell>
        <mxCell id="-8R4dWwHRHD-DHXN2tkf-27" style="edgeStyle=orthogonalEdgeStyle;rounded=0;orthogonalLoop=1;jettySize=auto;html=1;" parent="1" source="-8R4dWwHRHD-DHXN2tkf-4" target="-8R4dWwHRHD-DHXN2tkf-19" edge="1">
          <mxGeometry relative="1" as="geometry" />
        </mxCell>
        <mxCell id="-8R4dWwHRHD-DHXN2tkf-28" style="edgeStyle=orthogonalEdgeStyle;rounded=0;orthogonalLoop=1;jettySize=auto;html=1;entryX=0;entryY=0.5;entryDx=0;entryDy=0;" parent="1" source="-8R4dWwHRHD-DHXN2tkf-4" target="-8R4dWwHRHD-DHXN2tkf-17" edge="1">
          <mxGeometry relative="1" as="geometry" />
        </mxCell>
        <mxCell id="-8R4dWwHRHD-DHXN2tkf-29" style="edgeStyle=orthogonalEdgeStyle;rounded=0;orthogonalLoop=1;jettySize=auto;html=1;" parent="1" source="-8R4dWwHRHD-DHXN2tkf-4" target="-8R4dWwHRHD-DHXN2tkf-20" edge="1">
          <mxGeometry relative="1" as="geometry" />
        </mxCell>
        <mxCell id="-8R4dWwHRHD-DHXN2tkf-4" value="" style="sketch=0;pointerEvents=1;shadow=0;dashed=0;html=1;strokeColor=none;labelPosition=center;verticalLabelPosition=bottom;verticalAlign=top;outlineConnect=0;align=center;shape=mxgraph.office.concepts.folder;fillColor=#2072B8;" parent="1" vertex="1">
          <mxGeometry x="-187.5" y="240" width="65" height="50" as="geometry" />
        </mxCell>
        <mxCell id="-8R4dWwHRHD-DHXN2tkf-6" value="" style="image;aspect=fixed;html=1;points=[];align=center;fontSize=12;image=img/lib/azure2/general/File.svg;" parent="1" vertex="1">
          <mxGeometry x="-140" y="270" width="20" height="24.65" as="geometry" />
        </mxCell>
        <mxCell id="-8R4dWwHRHD-DHXN2tkf-8" value="CRM" style="text;html=1;align=center;verticalAlign=middle;resizable=0;points=[];autosize=1;strokeColor=none;fillColor=none;" parent="1" vertex="1">
          <mxGeometry x="-180" y="290" width="50" height="30" as="geometry" />
        </mxCell>
        <mxCell id="-8R4dWwHRHD-DHXN2tkf-9" value="ERP" style="text;html=1;align=center;verticalAlign=middle;resizable=0;points=[];autosize=1;strokeColor=none;fillColor=none;" parent="1" vertex="1">
          <mxGeometry x="-180" y="440" width="50" height="30" as="geometry" />
        </mxCell>
        <mxCell id="-8R4dWwHRHD-DHXN2tkf-10" value="" style="rounded=1;whiteSpace=wrap;html=1;fillColor=#ffe6cc;strokeColor=#d79b00;fillStyle=hatch;glass=0;" parent="1" vertex="1">
          <mxGeometry y="150" width="170" height="420" as="geometry" />
        </mxCell>
        <mxCell id="-8R4dWwHRHD-DHXN2tkf-11" value="" style="rounded=1;whiteSpace=wrap;html=1;fillColor=#bac8d3;strokeColor=#949494;fillStyle=hatch;" parent="1" vertex="1">
          <mxGeometry x="250" y="150" width="170" height="420" as="geometry" />
        </mxCell>
        <mxCell id="-8R4dWwHRHD-DHXN2tkf-12" value="" style="rounded=1;whiteSpace=wrap;html=1;fillColor=#FFF2CC;strokeColor=#d6b656;fillStyle=hatch;" parent="1" vertex="1">
          <mxGeometry x="500" y="150" width="170" height="420" as="geometry" />
        </mxCell>
        <mxCell id="-8R4dWwHRHD-DHXN2tkf-14" value="&lt;b&gt;Bronze Layer&lt;/b&gt;" style="rounded=1;whiteSpace=wrap;html=1;fillColor=#ffe6cc;strokeColor=#d79b00;fillStyle=auto;glass=0;" parent="1" vertex="1">
          <mxGeometry y="107.33000000000001" width="170" height="35.35" as="geometry" />
        </mxCell>
        <mxCell id="-8R4dWwHRHD-DHXN2tkf-15" value="&lt;b&gt;Silver Layer&lt;/b&gt;" style="rounded=1;whiteSpace=wrap;html=1;fillColor=#bac8d3;strokeColor=#949494;fillStyle=auto;" parent="1" vertex="1">
          <mxGeometry x="250" y="107.33" width="170" height="32.67" as="geometry" />
        </mxCell>
        <mxCell id="-8R4dWwHRHD-DHXN2tkf-16" value="&lt;b&gt;Gold Layer&lt;/b&gt;" style="rounded=1;whiteSpace=wrap;html=1;fillColor=#FFF2CC;strokeColor=#d6b656;fillStyle=auto;" parent="1" vertex="1">
          <mxGeometry x="500" y="107.33" width="170" height="32.67" as="geometry" />
        </mxCell>
        <mxCell id="aD9hmAm2dY3R8kbH1PZn-12" style="edgeStyle=orthogonalEdgeStyle;rounded=0;orthogonalLoop=1;jettySize=auto;html=1;exitX=1;exitY=0.5;exitDx=0;exitDy=0;" parent="1" source="-8R4dWwHRHD-DHXN2tkf-17" target="aD9hmAm2dY3R8kbH1PZn-1" edge="1">
          <mxGeometry relative="1" as="geometry" />
        </mxCell>
        <mxCell id="-8R4dWwHRHD-DHXN2tkf-17" value="crm_cust_info" style="rounded=1;whiteSpace=wrap;html=1;fillColor=#ffe6cc;strokeColor=#d79b00;fillStyle=auto;glass=0;" parent="1" vertex="1">
          <mxGeometry x="12.5" y="210" width="145" height="30" as="geometry" />
        </mxCell>
        <mxCell id="aD9hmAm2dY3R8kbH1PZn-11" style="edgeStyle=orthogonalEdgeStyle;rounded=0;orthogonalLoop=1;jettySize=auto;html=1;exitX=1;exitY=0.5;exitDx=0;exitDy=0;" parent="1" source="-8R4dWwHRHD-DHXN2tkf-19" target="aD9hmAm2dY3R8kbH1PZn-2" edge="1">
          <mxGeometry relative="1" as="geometry" />
        </mxCell>
        <mxCell id="-8R4dWwHRHD-DHXN2tkf-19" value="crm_prd_info" style="rounded=1;whiteSpace=wrap;html=1;fillColor=#ffe6cc;strokeColor=#d79b00;fillStyle=auto;glass=0;" parent="1" vertex="1">
          <mxGeometry x="12.5" y="250" width="145" height="30" as="geometry" />
        </mxCell>
        <mxCell id="aD9hmAm2dY3R8kbH1PZn-10" style="edgeStyle=orthogonalEdgeStyle;rounded=0;orthogonalLoop=1;jettySize=auto;html=1;exitX=1;exitY=0.5;exitDx=0;exitDy=0;entryX=0;entryY=0.5;entryDx=0;entryDy=0;" parent="1" source="-8R4dWwHRHD-DHXN2tkf-20" target="aD9hmAm2dY3R8kbH1PZn-3" edge="1">
          <mxGeometry relative="1" as="geometry" />
        </mxCell>
        <mxCell id="-8R4dWwHRHD-DHXN2tkf-20" value="crm_sales_details" style="rounded=1;whiteSpace=wrap;html=1;fillColor=#ffe6cc;strokeColor=#d79b00;fillStyle=auto;glass=0;" parent="1" vertex="1">
          <mxGeometry x="12.5" y="290" width="145" height="30" as="geometry" />
        </mxCell>
        <mxCell id="aD9hmAm2dY3R8kbH1PZn-9" style="edgeStyle=orthogonalEdgeStyle;rounded=0;orthogonalLoop=1;jettySize=auto;html=1;exitX=1;exitY=0.5;exitDx=0;exitDy=0;entryX=0;entryY=0.5;entryDx=0;entryDy=0;" parent="1" source="-8R4dWwHRHD-DHXN2tkf-21" target="aD9hmAm2dY3R8kbH1PZn-4" edge="1">
          <mxGeometry relative="1" as="geometry" />
        </mxCell>
        <mxCell id="-8R4dWwHRHD-DHXN2tkf-21" value="erp_cust_az12" style="rounded=1;whiteSpace=wrap;html=1;fillColor=#ffe6cc;strokeColor=#d79b00;fillStyle=auto;glass=0;" parent="1" vertex="1">
          <mxGeometry x="12.5" y="360" width="145" height="30" as="geometry" />
        </mxCell>
        <mxCell id="aD9hmAm2dY3R8kbH1PZn-8" style="edgeStyle=orthogonalEdgeStyle;rounded=0;orthogonalLoop=1;jettySize=auto;html=1;exitX=1;exitY=0.5;exitDx=0;exitDy=0;" parent="1" source="-8R4dWwHRHD-DHXN2tkf-22" target="aD9hmAm2dY3R8kbH1PZn-5" edge="1">
          <mxGeometry relative="1" as="geometry" />
        </mxCell>
        <mxCell id="-8R4dWwHRHD-DHXN2tkf-22" value="erp_loc_a101" style="rounded=1;whiteSpace=wrap;html=1;fillColor=#ffe6cc;strokeColor=#d79b00;fillStyle=auto;glass=0;" parent="1" vertex="1">
          <mxGeometry x="12.5" y="400" width="145" height="30" as="geometry" />
        </mxCell>
        <mxCell id="aD9hmAm2dY3R8kbH1PZn-7" style="edgeStyle=orthogonalEdgeStyle;rounded=0;orthogonalLoop=1;jettySize=auto;html=1;exitX=1;exitY=0.5;exitDx=0;exitDy=0;" parent="1" source="-8R4dWwHRHD-DHXN2tkf-23" target="aD9hmAm2dY3R8kbH1PZn-6" edge="1">
          <mxGeometry relative="1" as="geometry" />
        </mxCell>
        <mxCell id="-8R4dWwHRHD-DHXN2tkf-23" value="erp_px_cat_g1v2" style="rounded=1;whiteSpace=wrap;html=1;fillColor=#ffe6cc;strokeColor=#d79b00;fillStyle=auto;glass=0;" parent="1" vertex="1">
          <mxGeometry x="12.5" y="440" width="145" height="30" as="geometry" />
        </mxCell>
        <mxCell id="-8R4dWwHRHD-DHXN2tkf-30" style="edgeStyle=orthogonalEdgeStyle;rounded=0;orthogonalLoop=1;jettySize=auto;html=1;entryX=0;entryY=0.5;entryDx=0;entryDy=0;" parent="1" source="-8R4dWwHRHD-DHXN2tkf-24" target="-8R4dWwHRHD-DHXN2tkf-21" edge="1">
          <mxGeometry relative="1" as="geometry" />
        </mxCell>
        <mxCell id="-8R4dWwHRHD-DHXN2tkf-31" style="edgeStyle=orthogonalEdgeStyle;rounded=0;orthogonalLoop=1;jettySize=auto;html=1;entryX=0;entryY=0.5;entryDx=0;entryDy=0;" parent="1" source="-8R4dWwHRHD-DHXN2tkf-24" target="-8R4dWwHRHD-DHXN2tkf-22" edge="1">
          <mxGeometry relative="1" as="geometry" />
        </mxCell>
        <mxCell id="-8R4dWwHRHD-DHXN2tkf-32" style="edgeStyle=orthogonalEdgeStyle;rounded=0;orthogonalLoop=1;jettySize=auto;html=1;entryX=0;entryY=0.5;entryDx=0;entryDy=0;" parent="1" source="-8R4dWwHRHD-DHXN2tkf-24" target="-8R4dWwHRHD-DHXN2tkf-23" edge="1">
          <mxGeometry relative="1" as="geometry" />
        </mxCell>
        <mxCell id="-8R4dWwHRHD-DHXN2tkf-24" value="" style="sketch=0;pointerEvents=1;shadow=0;dashed=0;html=1;strokeColor=none;labelPosition=center;verticalLabelPosition=bottom;verticalAlign=top;outlineConnect=0;align=center;shape=mxgraph.office.concepts.folder;fillColor=#2072B8;" parent="1" vertex="1">
          <mxGeometry x="-187.5" y="390" width="65" height="50" as="geometry" />
        </mxCell>
        <mxCell id="-8R4dWwHRHD-DHXN2tkf-25" value="" style="image;aspect=fixed;html=1;points=[];align=center;fontSize=12;image=img/lib/azure2/general/File.svg;" parent="1" vertex="1">
          <mxGeometry x="-140" y="420" width="20" height="24.65" as="geometry" />
        </mxCell>
        <mxCell id="aD9hmAm2dY3R8kbH1PZn-1" value="crm_cust_info" style="rounded=1;whiteSpace=wrap;html=1;fillColor=#bac8d3;strokeColor=#23445d;fillStyle=auto;glass=0;" parent="1" vertex="1">
          <mxGeometry x="262.5" y="210" width="145" height="30" as="geometry" />
        </mxCell>
        <mxCell id="aD9hmAm2dY3R8kbH1PZn-2" value="crm_prd_info" style="rounded=1;whiteSpace=wrap;html=1;fillColor=#bac8d3;strokeColor=#23445d;fillStyle=auto;glass=0;" parent="1" vertex="1">
          <mxGeometry x="262.5" y="250" width="145" height="30" as="geometry" />
        </mxCell>
        <mxCell id="aD9hmAm2dY3R8kbH1PZn-3" value="crm_sales_details" style="rounded=1;whiteSpace=wrap;html=1;fillColor=#bac8d3;strokeColor=#23445d;fillStyle=auto;glass=0;" parent="1" vertex="1">
          <mxGeometry x="262.5" y="290" width="145" height="30" as="geometry" />
        </mxCell>
        <mxCell id="aD9hmAm2dY3R8kbH1PZn-4" value="erp_cust_az12" style="rounded=1;whiteSpace=wrap;html=1;fillColor=#bac8d3;strokeColor=#23445d;fillStyle=auto;glass=0;" parent="1" vertex="1">
          <mxGeometry x="262.5" y="360" width="145" height="30" as="geometry" />
        </mxCell>
        <mxCell id="aD9hmAm2dY3R8kbH1PZn-5" value="erp_loc_a101" style="rounded=1;whiteSpace=wrap;html=1;fillColor=#bac8d3;strokeColor=#23445d;fillStyle=auto;glass=0;" parent="1" vertex="1">
          <mxGeometry x="262.5" y="400" width="145" height="30" as="geometry" />
        </mxCell>
        <mxCell id="aD9hmAm2dY3R8kbH1PZn-6" value="erp_px_cat_g1v2" style="rounded=1;whiteSpace=wrap;html=1;fillColor=#bac8d3;strokeColor=#23445d;fillStyle=auto;glass=0;" parent="1" vertex="1">
          <mxGeometry x="262.5" y="440" width="145" height="30" as="geometry" />
        </mxCell>
        <mxCell id="ggdhduG5_hJedkIaMPH9-1" value="dim_products" style="rounded=1;whiteSpace=wrap;html=1;fillColor=#fff2cc;strokeColor=#d6b656;fillStyle=auto;glass=0;" parent="1" vertex="1">
          <mxGeometry x="512.5" y="250" width="145" height="30" as="geometry" />
        </mxCell>
        <mxCell id="ggdhduG5_hJedkIaMPH9-2" value="dim_customers" style="rounded=1;whiteSpace=wrap;html=1;fillColor=#fff2cc;strokeColor=#d6b656;fillStyle=auto;glass=0;" parent="1" vertex="1">
          <mxGeometry x="512.5" y="330" width="145" height="30" as="geometry" />
        </mxCell>
        <mxCell id="ggdhduG5_hJedkIaMPH9-3" value="fact_sales" style="rounded=1;whiteSpace=wrap;html=1;fillColor=#fff2cc;strokeColor=#d6b656;fillStyle=auto;glass=0;" parent="1" vertex="1">
          <mxGeometry x="512.5" y="400" width="145" height="30" as="geometry" />
        </mxCell>
        <mxCell id="HSO0H_2_9aYunbwzDeTe-7" value="" style="endArrow=classic;html=1;rounded=0;exitX=1;exitY=0.5;exitDx=0;exitDy=0;entryX=0;entryY=0.5;entryDx=0;entryDy=0;jumpStyle=gap;" edge="1" parent="1" source="aD9hmAm2dY3R8kbH1PZn-1" target="ggdhduG5_hJedkIaMPH9-2">
          <mxGeometry width="50" height="50" relative="1" as="geometry">
            <mxPoint x="430" y="300" as="sourcePoint" />
            <mxPoint x="480" y="250" as="targetPoint" />
          </mxGeometry>
        </mxCell>
        <mxCell id="HSO0H_2_9aYunbwzDeTe-8" value="" style="endArrow=classic;html=1;rounded=0;exitX=1;exitY=0.5;exitDx=0;exitDy=0;entryX=0;entryY=0.5;entryDx=0;entryDy=0;jumpStyle=gap;" edge="1" parent="1" source="aD9hmAm2dY3R8kbH1PZn-2" target="ggdhduG5_hJedkIaMPH9-1">
          <mxGeometry width="50" height="50" relative="1" as="geometry">
            <mxPoint x="418" y="235" as="sourcePoint" />
            <mxPoint x="503" y="355" as="targetPoint" />
          </mxGeometry>
        </mxCell>
        <mxCell id="HSO0H_2_9aYunbwzDeTe-9" value="" style="endArrow=classic;html=1;rounded=0;exitX=1;exitY=0.5;exitDx=0;exitDy=0;entryX=0;entryY=0.5;entryDx=0;entryDy=0;jumpStyle=gap;" edge="1" parent="1" source="aD9hmAm2dY3R8kbH1PZn-3" target="ggdhduG5_hJedkIaMPH9-3">
          <mxGeometry width="50" height="50" relative="1" as="geometry">
            <mxPoint x="407.5" y="304.5" as="sourcePoint" />
            <mxPoint x="492.5" y="304.5" as="targetPoint" />
          </mxGeometry>
        </mxCell>
        <mxCell id="HSO0H_2_9aYunbwzDeTe-10" value="" style="endArrow=classic;html=1;rounded=0;exitX=1;exitY=0.5;exitDx=0;exitDy=0;entryX=0;entryY=0.5;entryDx=0;entryDy=0;jumpStyle=gap;" edge="1" parent="1" source="aD9hmAm2dY3R8kbH1PZn-4" target="ggdhduG5_hJedkIaMPH9-2">
          <mxGeometry width="50" height="50" relative="1" as="geometry">
            <mxPoint x="418" y="315" as="sourcePoint" />
            <mxPoint x="503" y="425" as="targetPoint" />
          </mxGeometry>
        </mxCell>
        <mxCell id="HSO0H_2_9aYunbwzDeTe-11" value="" style="endArrow=classic;html=1;rounded=0;exitX=1;exitY=0.5;exitDx=0;exitDy=0;entryX=0;entryY=0.5;entryDx=0;entryDy=0;jumpStyle=gap;" edge="1" parent="1" source="aD9hmAm2dY3R8kbH1PZn-5" target="ggdhduG5_hJedkIaMPH9-2">
          <mxGeometry width="50" height="50" relative="1" as="geometry">
            <mxPoint x="418" y="385" as="sourcePoint" />
            <mxPoint x="503" y="355" as="targetPoint" />
          </mxGeometry>
        </mxCell>
        <mxCell id="HSO0H_2_9aYunbwzDeTe-12" value="" style="endArrow=classic;html=1;rounded=0;exitX=1;exitY=0.5;exitDx=0;exitDy=0;entryX=0;entryY=0.5;entryDx=0;entryDy=0;jumpStyle=gap;" edge="1" parent="1" source="aD9hmAm2dY3R8kbH1PZn-6" target="ggdhduG5_hJedkIaMPH9-1">
          <mxGeometry width="50" height="50" relative="1" as="geometry">
            <mxPoint x="418" y="425" as="sourcePoint" />
            <mxPoint x="503" y="355" as="targetPoint" />
          </mxGeometry>
        </mxCell>
      </root>
    </mxGraphModel>
  </diagram>
</mxfile>
